<?xml version="1.0" standalone="no"?>
<!DOCTYPE svg PUBLIC "-//W3C//DTD SVG 20010904//EN"
 "http://www.w3.org/TR/2001/REC-SVG-20010904/DTD/svg10.dtd">
<svg version="1.0" xmlns="http://www.w3.org/2000/svg"
 width="300.000000pt" height="300.000000pt" viewBox="0 0 300.000000 300.000000"
 preserveAspectRatio="xMidYMid meet">
<metadata>
Created by potrace 1.14, written by Peter Selinger 2001-2017
</metadata>
<g transform="translate(0.000000,300.000000) scale(0.100000,-0.100000)"
fill="#000000" stroke="none">
<path d="M0 1538 l0 -1461 42 -39 41 -38 494 0 c318 0 493 4 493 10 0 25 -173
110 -224 110 -42 0 -55 -10 -70 -54 l-13 -37 -16 43 c-44 117 -47 210 -12 321
14 43 25 86 25 96 0 11 6 21 13 24 15 6 70 107 58 107 -13 0 -101 -110 -101
-126 0 -20 -42 -145 -47 -140 -11 10 51 178 77 211 36 45 37 50 9 52 -31 3
-88 50 -95 81 -4 15 -11 33 -17 39 -5 7 -10 77 -11 155 -1 135 1 146 25 199
31 65 109 148 167 178 50 26 58 38 39 59 -8 9 -21 37 -28 62 -7 25 -16 50 -20
56 -5 5 -13 64 -20 129 -10 101 -9 129 4 189 9 39 23 119 31 177 7 58 24 127
36 153 25 57 38 126 49 282 6 84 13 120 25 133 9 10 20 36 23 56 15 92 160
243 300 311 40 20 75 40 78 44 3 5 -1 25 -9 45 l-15 35 -665 0 -666 0 0 -1462z"/>
<path d="M1835 2990 c3 -5 15 -10 26 -10 14 0 19 -5 17 -17 -4 -22 25 -46 77
-63 54 -17 119 -67 144 -110 21 -38 55 -70 72 -70 29 0 110 -125 123 -190 4
-19 16 -54 27 -77 10 -24 19 -49 19 -57 0 -8 4 -16 9 -18 11 -4 91 -186 91
-209 0 -10 5 -21 11 -24 6 -4 8 -13 5 -21 -3 -7 4 -33 14 -58 14 -30 23 -85
30 -173 6 -70 12 -138 15 -150 3 -12 0 -34 -5 -49 -8 -21 -8 -29 2 -36 9 -6
10 -10 2 -15 -22 -16 -33 -50 -25 -79 7 -24 10 -26 16 -11 4 9 13 17 20 17 7
0 16 6 18 13 3 6 6 3 6 -8 1 -16 3 -17 10 -6 6 8 6 24 0 38 -8 21 -5 27 14 24
4 0 7 6 7 14 0 9 -9 15 -25 15 -22 0 -24 2 -13 19 7 11 16 17 20 15 4 -3 8 0
8 5 0 6 -9 11 -20 11 -23 0 -24 4 -10 30 8 15 18 18 45 15 19 -3 35 -1 35 4 0
13 45 61 58 61 7 0 12 5 12 11 0 6 -7 9 -15 6 -8 -4 -17 -2 -20 3 -4 6 -1 10
4 10 6 0 11 7 11 16 0 13 7 15 35 11 21 -3 33 -2 30 4 -4 5 -16 9 -28 10 -15
0 -8 6 21 16 23 8 42 19 42 25 0 5 7 16 15 24 8 9 15 12 15 8 0 -3 32 25 70
64 47 47 79 72 98 74 l27 3 3 288 c2 282 2 289 -18 294 -11 3 -20 10 -20 17 0
15 -40 41 -65 41 -11 0 -25 11 -33 28 -7 15 -17 27 -23 27 -18 0 -9 21 14 30
17 7 18 9 5 9 -10 1 -18 6 -18 12 0 6 -7 9 -15 5 -10 -3 -15 1 -16 12 0 10 -3
12 -6 5 -6 -15 -33 -17 -33 -3 0 10 20 14 55 10 20 -2 20 -2 1 19 -19 21 -19
21 -1 15 15 -6 17 -4 12 10 -6 14 -3 17 9 12 13 -5 15 -2 10 16 -3 13 -6 29
-6 36 0 9 -109 12 -511 12 -337 0 -508 -3 -504 -10z m710 -85 c0 -36 -3 -40
-26 -41 -23 -1 -25 3 -25 35 1 38 12 53 36 48 10 -1 15 -15 15 -42z m243 -69
c-13 -14 -28 -12 -28 5 0 5 9 9 20 9 17 0 19 -2 8 -14z m-168 -1058 c0 -19
-16 -5 -17 14 -2 18 0 20 7 8 5 -8 10 -18 10 -22z m-100 -178 c0 -5 -5 -10
-11 -10 -5 0 -7 5 -4 10 3 6 8 10 11 10 2 0 4 -4 4 -10z"/>
<path d="M2061 2034 c-24 -30 -28 -101 -10 -137 18 -35 51 -67 69 -67 32 0 60
43 60 93 0 111 -69 174 -119 111z"/>
<path d="M1221 1916 c-22 -27 -32 -79 -20 -113 21 -65 98 -92 115 -40 14 44
12 131 -4 150 -18 21 -75 23 -91 3z m49 -124 c0 -13 -4 -21 -9 -18 -10 7 -20
53 -13 61 9 8 22 -18 22 -43z"/>
<path d="M1710 1800 c-19 -19 -19 -21 -2 -49 9 -17 27 -33 40 -36 46 -11 99
82 56 99 -31 12 -74 6 -94 -14z"/>
<path d="M2640 1773 c0 -15 19 -37 26 -31 3 4 -1 14 -10 23 -9 9 -16 13 -16 8z"/>
<path d="M2151 1240 c-49 -41 -151 -65 -225 -51 -31 6 -64 15 -74 20 -9 5 -37
12 -62 16 -42 6 -50 3 -95 -29 -91 -66 -148 -88 -225 -87 -38 0 -86 7 -106 16
l-37 15 7 -30 c3 -18 2 -29 -4 -25 -12 8 -30 -27 -31 -62 -1 -16 -3 -21 -6
-11 -5 21 -103 -117 -124 -175 -7 -21 -22 -47 -32 -57 -18 -20 -17 -20 46 -20
69 0 121 -13 152 -39 11 -9 34 -23 50 -31 61 -30 165 -159 165 -206 0 -7 10
-29 23 -47 37 -55 79 -217 56 -217 -5 0 -4 -12 2 -27 8 -22 7 -30 -7 -40 -13
-10 -15 -16 -7 -24 9 -9 7 -21 -5 -48 -26 -55 -28 -56 -124 -36 -25 5 -28 2
-28 -20 l0 -25 371 0 371 0 -55 60 c-45 49 -57 68 -63 106 -11 77 4 226 31
306 14 40 25 80 25 88 0 29 160 253 207 290 14 11 37 23 50 26 12 4 23 8 23
11 0 7 -79 111 -90 118 -5 3 -23 34 -40 68 -16 34 -41 82 -55 107 -14 25 -25
55 -25 67 0 30 -18 28 -59 -7z m-826 -260 c-3 -5 -11 -10 -16 -10 -6 0 -7 5
-4 10 3 6 11 10 16 10 6 0 7 -4 4 -10z m-30 -118 c-6 -36 -9 -43 -15 -27 -4
11 -4 28 1 37 5 9 9 27 10 40 0 13 3 17 6 10 3 -7 2 -34 -2 -60z m27 -7 c-2
-14 -9 -25 -14 -25 -5 0 -7 3 -5 8 2 4 7 15 10 25 9 25 15 21 9 -8z"/>
<path d="M2990 979 c0 -15 -88 -97 -125 -116 -17 -9 -67 -19 -115 -22 l-85 -6
55 -14 c82 -20 149 -64 198 -132 23 -33 42 -65 42 -73 0 -8 6 -16 14 -19 8 -3
16 -18 19 -34 2 -15 5 74 6 200 0 125 -1 227 -4 227 -3 0 -5 -5 -5 -11z"/>
<path d="M2720 458 c-26 -42 -25 -44 9 -79 31 -31 77 -39 99 -17 27 27 6 98
-35 117 -38 17 -52 13 -73 -21z"/>
<path d="M916 459 c-30 -24 -34 -63 -10 -97 20 -29 55 -28 93 4 36 30 40 65
11 94 -26 26 -60 25 -94 -1z"/>
<path d="M752 368 c-5 -7 -13 -32 -17 -56 -9 -56 14 -95 53 -90 26 3 27 6 27
60 0 41 -6 62 -19 77 -22 24 -30 26 -44 9z"/>
<path d="M2960 348 c-13 -21 -19 -46 -18 -68 3 -30 7 -35 28 -35 24 0 25 3 28
68 3 75 -7 85 -38 35z"/>
<path d="M2572 270 c-27 -26 -28 -46 -1 -89 18 -30 24 -33 52 -27 65 12 84 77
35 119 -27 23 -59 22 -86 -3z"/>
<path d="M1099 211 c-16 -13 -23 -29 -23 -55 0 -65 61 -95 109 -53 74 63 -10
169 -86 108z"/>
<path d="M2830 135 c-36 -13 -71 -33 -79 -44 -7 -12 -22 -21 -31 -21 -18 0
-60 -43 -60 -61 0 -5 77 -9 170 -9 l170 0 0 38 c0 20 -9 56 -20 80 -17 37 -23
42 -52 41 -18 -1 -62 -11 -98 -24z"/>
</g>
</svg>
